<?xml version="1.0" encoding="UTF-8"?>
<svg viewBox="60 105 1380 720" role="img" aria-label="Layered client crate dependency architecture diagram for Envoix" xmlns="http://www.w3.org/2000/svg">
  <rect x="60" y="105" width="1380" height="720" fill="#ffffff"/>
  <defs>
    <marker id="arrowDep" markerWidth="9" markerHeight="9" refX="8" refY="3" orient="auto"><path d="M0,0 L8,3 L0,6 Z" fill="#64748b"/></marker>
    <marker id="arrowPurple" markerWidth="10" markerHeight="10" refX="8" refY="3" orient="auto"><path d="M0,0 L8,3 L0,6 Z" fill="#7c3aed"/></marker>
  </defs>
  <text x="70" y="120" font-family="Inter, ui-sans-serif, system-ui, -apple-system, Segoe UI, Roboto, Arial, sans-serif" font-size="16" font-weight="700" fill="#111827">BINARY / FRONTEND</text>
  <line x1="70" y1="130" x2="1430" y2="130" stroke="#e2e8f0" />
  <text x="70" y="230" font-family="Inter, ui-sans-serif, system-ui, -apple-system, Segoe UI, Roboto, Arial, sans-serif" font-size="16" font-weight="700" fill="#111827">PUBLIC CLIENT API</text>
  <line x1="70" y1="240" x2="1430" y2="240" stroke="#e2e8f0" />
  <text x="70" y="340" font-family="Inter, ui-sans-serif, system-ui, -apple-system, Segoe UI, Roboto, Arial, sans-serif" font-size="16" font-weight="700" fill="#111827">ORCHESTRATION</text>
  <line x1="70" y1="350" x2="1430" y2="350" stroke="#e2e8f0" />
  <text x="70" y="470" font-family="Inter, ui-sans-serif, system-ui, -apple-system, Segoe UI, Roboto, Arial, sans-serif" font-size="16" font-weight="700" fill="#111827">ENGINE SERVICES</text>
  <line x1="70" y1="480" x2="1430" y2="480" stroke="#e2e8f0" />
  <text x="70" y="695" font-family="Inter, ui-sans-serif, system-ui, -apple-system, Segoe UI, Roboto, Arial, sans-serif" font-size="16" font-weight="700" fill="#111827">FOUNDATION</text>
  <line x1="70" y1="705" x2="1430" y2="705" stroke="#e2e8f0" />
  <rect x="610" y="145" width="280" height="62" rx="10" fill="#eff6ff" stroke="#2563eb" stroke-width="1.8" />
  <text x="750" y="171" text-anchor="middle" font-family="Inter, ui-sans-serif, system-ui, -apple-system, Segoe UI, Roboto, Arial, sans-serif" font-size="24" font-weight="700" fill="#0f172a">cli</text>
  <text x="750" y="194" text-anchor="middle" font-family="Inter, ui-sans-serif, system-ui, -apple-system, Segoe UI, Roboto, Arial, sans-serif" font-size="18" font-weight="400" fill="#334155">desktop Rust binary</text>
  <rect x="595" y="255" width="310" height="62" rx="10" fill="#ecfdf5" stroke="#059669" stroke-width="1.8" />
  <text x="750" y="281" text-anchor="middle" font-family="Inter, ui-sans-serif, system-ui, -apple-system, Segoe UI, Roboto, Arial, sans-serif" font-size="24" font-weight="700" fill="#0f172a">client</text>
  <text x="750" y="304" text-anchor="middle" font-family="Inter, ui-sans-serif, system-ui, -apple-system, Segoe UI, Roboto, Arial, sans-serif" font-size="18" font-weight="400" fill="#334155">shared client-facing API</text>
  <rect x="560" y="365" width="380" height="90" rx="10" fill="#f5f3ff" stroke="#7c3aed" stroke-width="1.8" />
  <text x="750" y="395" text-anchor="middle" font-family="Inter, ui-sans-serif, system-ui, -apple-system, Segoe UI, Roboto, Arial, sans-serif" font-size="24" font-weight="700" fill="#0f172a">session</text>
  <text x="750" y="419" text-anchor="middle" font-family="Inter, ui-sans-serif, system-ui, -apple-system, Segoe UI, Roboto, Arial, sans-serif" font-size="18" font-weight="400" fill="#334155">central coordinator for pairing,</text>
  <text x="750" y="440" text-anchor="middle" font-family="Inter, ui-sans-serif, system-ui, -apple-system, Segoe UI, Roboto, Arial, sans-serif" font-size="18" font-weight="400" fill="#334155">path selection, and file transfers</text>
  <rect x="145" y="505" width="190" height="64" rx="10" fill="#fff7ed" stroke="#ea580c" stroke-width="1.8" />
  <text x="240" y="532" text-anchor="middle" font-family="Inter, ui-sans-serif, system-ui, -apple-system, Segoe UI, Roboto, Arial, sans-serif" font-size="24" font-weight="700" fill="#0f172a">auth</text>
  <text x="240" y="555" text-anchor="middle" font-family="Inter, ui-sans-serif, system-ui, -apple-system, Segoe UI, Roboto, Arial, sans-serif" font-size="18" font-weight="400" fill="#334155">identity + trust</text>
  <rect x="425" y="505" width="190" height="64" rx="10" fill="#f8fafc" stroke="#475569" stroke-width="1.8" />
  <text x="520" y="532" text-anchor="middle" font-family="Inter, ui-sans-serif, system-ui, -apple-system, Segoe UI, Roboto, Arial, sans-serif" font-size="24" font-weight="700" fill="#0f172a">discovery</text>
  <text x="520" y="555" text-anchor="middle" font-family="Inter, ui-sans-serif, system-ui, -apple-system, Segoe UI, Roboto, Arial, sans-serif" font-size="18" font-weight="400" fill="#334155">LAN / peer finding</text>
  <rect x="705" y="505" width="190" height="64" rx="10" fill="#eff6ff" stroke="#2563eb" stroke-width="1.8" />
  <text x="800" y="532" text-anchor="middle" font-family="Inter, ui-sans-serif, system-ui, -apple-system, Segoe UI, Roboto, Arial, sans-serif" font-size="24" font-weight="700" fill="#0f172a">transfer</text>
  <text x="800" y="555" text-anchor="middle" font-family="Inter, ui-sans-serif, system-ui, -apple-system, Segoe UI, Roboto, Arial, sans-serif" font-size="18" font-weight="400" fill="#334155">file chunks + resume</text>
  <rect x="985" y="505" width="210" height="64" rx="10" fill="#ecfdf5" stroke="#059669" stroke-width="1.8" />
  <text x="1090" y="532" text-anchor="middle" font-family="Inter, ui-sans-serif, system-ui, -apple-system, Segoe UI, Roboto, Arial, sans-serif" font-size="24" font-weight="700" fill="#0f172a">transport-quic</text>
  <text x="1090" y="555" text-anchor="middle" font-family="Inter, ui-sans-serif, system-ui, -apple-system, Segoe UI, Roboto, Arial, sans-serif" font-size="18" font-weight="400" fill="#334155">QUIC implementation</text>
  <rect x="510" y="610" width="210" height="64" rx="10" fill="#ecfdf5" stroke="#059669" stroke-width="1.8" />
  <text x="615" y="637" text-anchor="middle" font-family="Inter, ui-sans-serif, system-ui, -apple-system, Segoe UI, Roboto, Arial, sans-serif" font-size="24" font-weight="700" fill="#0f172a">transport</text>
  <text x="615" y="660" text-anchor="middle" font-family="Inter, ui-sans-serif, system-ui, -apple-system, Segoe UI, Roboto, Arial, sans-serif" font-size="18" font-weight="400" fill="#334155">transport interface</text>
  <rect x="870" y="610" width="210" height="64" rx="10" fill="#f8fafc" stroke="#475569" stroke-width="1.8" />
  <text x="975" y="637" text-anchor="middle" font-family="Inter, ui-sans-serif, system-ui, -apple-system, Segoe UI, Roboto, Arial, sans-serif" font-size="24" font-weight="700" fill="#0f172a">storage</text>
  <text x="975" y="660" text-anchor="middle" font-family="Inter, ui-sans-serif, system-ui, -apple-system, Segoe UI, Roboto, Arial, sans-serif" font-size="18" font-weight="400" fill="#334155">file state</text>
  <rect x="370" y="725" width="190" height="62" rx="10" fill="#f8fafc" stroke="#475569" stroke-width="1.8" />
  <text x="465" y="751" text-anchor="middle" font-family="Inter, ui-sans-serif, system-ui, -apple-system, Segoe UI, Roboto, Arial, sans-serif" font-size="24" font-weight="700" fill="#0f172a">protocol</text>
  <text x="465" y="774" text-anchor="middle" font-family="Inter, ui-sans-serif, system-ui, -apple-system, Segoe UI, Roboto, Arial, sans-serif" font-size="18" font-weight="400" fill="#334155">wire messages</text>
  <rect x="655" y="725" width="190" height="62" rx="10" fill="#f8fafc" stroke="#475569" stroke-width="1.8" />
  <text x="750" y="751" text-anchor="middle" font-family="Inter, ui-sans-serif, system-ui, -apple-system, Segoe UI, Roboto, Arial, sans-serif" font-size="24" font-weight="700" fill="#0f172a">types</text>
  <text x="750" y="774" text-anchor="middle" font-family="Inter, ui-sans-serif, system-ui, -apple-system, Segoe UI, Roboto, Arial, sans-serif" font-size="18" font-weight="400" fill="#334155">shared data models</text>
  <rect x="940" y="725" width="190" height="62" rx="10" fill="#fef2f2" stroke="#dc2626" stroke-width="1.8" />
  <text x="1035" y="751" text-anchor="middle" font-family="Inter, ui-sans-serif, system-ui, -apple-system, Segoe UI, Roboto, Arial, sans-serif" font-size="24" font-weight="700" fill="#0f172a">error</text>
  <text x="1035" y="774" text-anchor="middle" font-family="Inter, ui-sans-serif, system-ui, -apple-system, Segoe UI, Roboto, Arial, sans-serif" font-size="18" font-weight="400" fill="#334155">common errors</text>
  <path d="M750 207 L750 255" fill="none" stroke="#7c3aed" stroke-width="2.3" marker-end="url(#arrowPurple)" />
  <path d="M750 317 L750 365" fill="none" stroke="#7c3aed" stroke-width="2.3" marker-end="url(#arrowPurple)" />
  <path d="M605 455 C500 478 360 487 240 505" fill="none" stroke="#7c3aed" stroke-width="2.3" marker-end="url(#arrowPurple)" />
  <path d="M690 455 C635 478 575 487 520 505" fill="none" stroke="#7c3aed" stroke-width="2.3" marker-end="url(#arrowPurple)" />
  <path d="M800 455 L800 505" fill="none" stroke="#7c3aed" stroke-width="2.3" marker-end="url(#arrowPurple)" />
  <path d="M895 455 C960 478 1035 487 1090 505" fill="none" stroke="#7c3aed" stroke-width="2.3" marker-end="url(#arrowPurple)" />
  <path d="M240 569 C330 592 470 596 615 610" fill="none" stroke="#64748b" stroke-width="1.8" marker-end="url(#arrowDep)" />
  <path d="M520 569 C550 590 585 595 615 610" fill="none" stroke="#64748b" stroke-width="1.8" marker-end="url(#arrowDep)" />
  <path d="M800 569 C740 590 680 595 615 610" fill="none" stroke="#64748b" stroke-width="1.8" marker-end="url(#arrowDep)" />
  <path d="M800 569 C850 590 920 595 975 610" fill="none" stroke="#64748b" stroke-width="1.8" marker-end="url(#arrowDep)" />
  <path d="M1090 569 C985 596 780 596 615 610" fill="none" stroke="#64748b" stroke-width="1.8" marker-end="url(#arrowDep)" />
  <path d="M615 674 C575 696 520 707 465 725" fill="none" stroke="#64748b" stroke-width="1.8" marker-end="url(#arrowDep)" />
  <path d="M975 674 C930 696 820 707 750 725" fill="none" stroke="#64748b" stroke-width="1.8" marker-end="url(#arrowDep)" />
  <path d="M975 674 C995 699 1015 710 1035 725" fill="none" stroke="#64748b" stroke-width="1.8" marker-end="url(#arrowDep)" />
  <path d="M465 787 C520 810 690 810 750 787" fill="none" stroke="#64748b" stroke-width="1.8" marker-end="url(#arrowDep)" />
  <path d="M465 787 C610 820 900 820 1035 787" fill="none" stroke="#64748b" stroke-width="1.8" marker-end="url(#arrowDep)" />
  <rect x="1000" y="145" width="380" height="62" rx="10" fill="#ffffff" stroke="#cbd5e1" />
  <line x1="1025" y1="170" x2="1075" y2="170" stroke="#7c3aed" stroke-width="2.3" marker-end="url(#arrowPurple)" />
  <text x="1090" y="175" font-family="Inter, ui-sans-serif, system-ui, -apple-system, Segoe UI, Roboto, Arial, sans-serif" font-size="16" fill="#334155">primary orchestration dependency</text>
  <line x1="1025" y1="193" x2="1075" y2="193" stroke="#64748b" stroke-width="1.8" marker-end="url(#arrowDep)" />
  <text x="1090" y="198" font-family="Inter, ui-sans-serif, system-ui, -apple-system, Segoe UI, Roboto, Arial, sans-serif" font-size="16" fill="#334155">direct crate dependency</text>
</svg>
